<?xml version="1.0" encoding="iso-8859-1"?>
<!-- Uploaded to: SVG Repo, www.svgrepo.com, Generator: SVG Repo Mixer Tools -->
<svg fill="#000000" height="800px" width="800px" version="1.1" id="Layer_1" xmlns="http://www.w3.org/2000/svg" xmlns:xlink="http://www.w3.org/1999/xlink" 
	 viewBox="0 0 512 512" xml:space="preserve">
<g>
	<g>
		<path d="M501.801,132.318H82.614V76.914c0-5.342,4.347-9.689,9.689-9.689s9.689,4.347,9.689,9.689v8.159
			c0,16.591,13.497,30.088,30.088,30.088h1.02c16.591,0,30.088-13.497,30.088-30.088V59.065c0-5.632-4.567-10.199-10.199-10.199
			c-5.632,0-10.199,4.567-10.199,10.199v26.008c0,5.342-4.347,9.689-9.689,9.689h-1.02c-5.342,0-9.689-4.347-9.689-9.689v-8.159
			c0-16.591-13.497-30.088-30.088-30.088S62.215,60.324,62.215,76.914v55.404H10.199C4.567,132.318,0,136.885,0,142.517v312.458
			c0,5.632,4.567,10.199,10.199,10.199h491.602c5.632,0,10.199-4.567,10.199-10.199V142.517
			C512,136.885,507.433,132.318,501.801,132.318z M491.602,444.777H20.398v-292.06h471.203V444.777z"/>
	</g>
</g>
<g>
	<g>
		<path d="M463.044,172.834H135.649c-5.632,0-10.199,4.567-10.199,10.199v231.426c0,5.633,4.567,10.199,10.199,10.199h327.394
			c5.632,0,10.199-4.567,10.199-10.199V183.033C473.243,177.401,468.676,172.834,463.044,172.834z M452.845,404.26H145.849V193.233
			h306.996V404.26z"/>
	</g>
</g>
<g>
	<g>
		<path d="M73.434,257.95c-22.495,0-40.797,18.301-40.797,40.797s18.301,40.797,40.797,40.797s40.797-18.301,40.797-40.797
			S95.93,257.95,73.434,257.95z M73.434,319.145c-11.248,0-20.398-9.151-20.398-20.398s9.151-20.398,20.398-20.398
			s20.398,9.151,20.398,20.398S84.682,319.145,73.434,319.145z"/>
	</g>
</g>
<g>
	<g>
		<path d="M79.554,219.193H68.335c-5.632,0-10.199,4.567-10.199,10.199s4.567,10.199,10.199,10.199h11.219
			c5.632,0,10.199-4.567,10.199-10.199S85.186,219.193,79.554,219.193z"/>
	</g>
</g>
<g>
	<g>
		<path d="M79.554,181.456H68.335c-5.632,0-10.199,4.567-10.199,10.199s4.567,10.199,10.199,10.199h11.219
			c5.632,0,10.199-4.567,10.199-10.199S85.186,181.456,79.554,181.456z"/>
	</g>
</g>
<g>
	<g>
		<path d="M79.554,395.639H68.335c-5.632,0-10.199,4.567-10.199,10.199s4.567,10.199,10.199,10.199h11.219
			c5.632,0,10.199-4.567,10.199-10.199S85.186,395.639,79.554,395.639z"/>
	</g>
</g>
<g>
	<g>
		<path d="M79.554,357.902H68.335c-5.632,0-10.199,4.567-10.199,10.199c0,5.632,4.567,10.199,10.199,10.199h11.219
			c5.632,0,10.199-4.567,10.199-10.199C89.753,362.469,85.186,357.902,79.554,357.902z"/>
	</g>
</g>
<g>
	<g>
		<path d="M431.505,205.035h-20.076c-5.632,0-10.199,4.567-10.199,10.199c0,5.632,4.567,10.199,10.199,10.199h9.877v9.876
			c0,5.632,4.567,10.199,10.199,10.199c5.632,0,10.199-4.567,10.199-10.199v-20.075
			C441.704,209.602,437.138,205.035,431.505,205.035z"/>
	</g>
</g>
<g>
	<g>
		<path d="M189.705,372.059h-9.876v-9.876c0-5.632-4.567-10.199-10.199-10.199c-5.632,0-10.199,4.567-10.199,10.199v20.075
			c0,5.632,4.567,10.199,10.199,10.199h20.075c5.632,0,10.199-4.567,10.199-10.199C199.904,376.626,195.337,372.059,189.705,372.059
			z"/>
	</g>
</g>
<g>
	<g>
		<path d="M189.705,205.035H169.63c-5.632,0-10.199,4.567-10.199,10.199v20.075c0,5.632,4.567,10.199,10.199,10.199
			c5.632,0,10.199-4.567,10.199-10.199v-9.876h9.876c5.632,0,10.199-4.567,10.199-10.199
			C199.904,209.602,195.337,205.035,189.705,205.035z"/>
	</g>
</g>
<g>
	<g>
		<path d="M431.505,351.984c-5.632,0-10.199,4.567-10.199,10.199v9.876h-9.877c-5.632,0-10.199,4.567-10.199,10.199
			c0,5.632,4.567,10.199,10.199,10.199h20.076c5.632,0,10.199-4.567,10.199-10.199v-20.075
			C441.704,356.551,437.138,351.984,431.505,351.984z"/>
	</g>
</g>
<g>
	<g>
		<path d="M380.43,372.059h-2.736c-5.632,0-10.199,4.567-10.199,10.199c0,5.632,4.567,10.199,10.199,10.199h2.736
			c5.632,0,10.199-4.567,10.199-10.199C390.63,376.626,386.062,372.059,380.43,372.059z"/>
	</g>
</g>
<g>
	<g>
		<path d="M480.383,65.185H234.072c-2.705,0-5.298,1.075-7.211,2.987l-14.352,14.351h-22.803c-5.632,0-10.199,4.567-10.199,10.199
			s4.567,10.199,10.199,10.199h22.803l14.35,14.351c1.913,1.912,4.507,2.987,7.212,2.987h246.312
			c15.185,0,27.538-12.353,27.538-27.538S495.567,65.185,480.383,65.185z M450.805,99.862H305.924
			c-0.512-5.154-4.86-9.179-10.147-9.179c-5.287,0-9.636,4.026-10.147,9.179h-9.282c-0.512-5.154-4.86-9.179-10.147-9.179
			c-5.287,0-9.636,4.026-10.147,9.179h-17.755l-7.14-7.139l7.138-7.139h212.509V99.862z M480.383,99.862h-9.179V85.583h9.179
			c3.936,0,7.139,3.204,7.139,7.139S484.318,99.862,480.383,99.862z"/>
	</g>
</g>
</svg>